<svg width="20" height="21" viewBox="0 0 20 21" fill="none" xmlns="http://www.w3.org/2000/svg">
<mask id="mask0_1001_312468" style="mask-type:alpha" maskUnits="userSpaceOnUse" x="0" y="0" width="20" height="21">
<rect y="0.5" width="20" height="20" fill="#D9D9D9"/>
</mask>
<g mask="url(#mask0_1001_312468)">
<path d="M5.83325 18C5.37492 18 4.98256 17.8368 4.65617 17.5104C4.32978 17.184 4.16659 16.7917 4.16659 16.3333V5.5C3.93047 5.5 3.73256 5.42014 3.57284 5.26042C3.41311 5.10069 3.33325 4.90278 3.33325 4.66667C3.33325 4.43056 3.41311 4.23264 3.57284 4.07292C3.73256 3.91319 3.93047 3.83333 4.16659 3.83333H7.49992C7.49992 3.59722 7.57978 3.39931 7.7395 3.23958C7.89922 3.07986 8.09714 3 8.33325 3H11.6666C11.9027 3 12.1006 3.07986 12.2603 3.23958C12.4201 3.39931 12.4999 3.59722 12.4999 3.83333H15.8333C16.0694 3.83333 16.2673 3.91319 16.427 4.07292C16.5867 4.23264 16.6666 4.43056 16.6666 4.66667C16.6666 4.90278 16.5867 5.10069 16.427 5.26042C16.2673 5.42014 16.0694 5.5 15.8333 5.5V16.3333C15.8333 16.7917 15.6701 17.184 15.3437 17.5104C15.0173 17.8368 14.6249 18 14.1666 18H5.83325ZM14.1666 5.5H5.83325V16.3333H14.1666V5.5ZM8.33325 14.6667C8.56936 14.6667 8.76728 14.5868 8.927 14.4271C9.08672 14.2674 9.16658 14.0694 9.16658 13.8333V8C9.16658 7.76389 9.08672 7.56597 8.927 7.40625C8.76728 7.24653 8.56936 7.16667 8.33325 7.16667C8.09714 7.16667 7.89922 7.24653 7.7395 7.40625C7.57978 7.56597 7.49992 7.76389 7.49992 8V13.8333C7.49992 14.0694 7.57978 14.2674 7.7395 14.4271C7.89922 14.5868 8.09714 14.6667 8.33325 14.6667ZM11.6666 14.6667C11.9027 14.6667 12.1006 14.5868 12.2603 14.4271C12.4201 14.2674 12.4999 14.0694 12.4999 13.8333V8C12.4999 7.76389 12.4201 7.56597 12.2603 7.40625C12.1006 7.24653 11.9027 7.16667 11.6666 7.16667C11.4305 7.16667 11.2326 7.24653 11.0728 7.40625C10.9131 7.56597 10.8333 7.76389 10.8333 8V13.8333C10.8333 14.0694 10.9131 14.2674 11.0728 14.4271C11.2326 14.5868 11.4305 14.6667 11.6666 14.6667Z" fill="#40414C"/>
</g>
</svg>
